<svg xmlns="http://www.w3.org/2000/svg" xmlns:xlink="http://www.w3.org/1999/xlink" version="1.1" width="118.502pt" height="118.502pt" viewBox="0 0 118.502 118.502">
<defs>
<clipPath id="clip_0">
<path transform="matrix(1,0,0,-1,0,118.502)" d="M0 118.502H118.502V.05999756H0Z"/>
</clipPath>
</defs>
<g clip-path="url(#clip_0)">
<path transform="matrix(1,0,0,-1,59.251,0)" d="M0 0C32.723 0 59.251-26.528 59.251-59.251 59.251-91.975 32.723-118.502 0-118.502-32.723-118.502-59.251-91.975-59.251-59.251-59.251-26.528-32.723 0 0 0" fill="#ffffff" fill-rule="evenodd"/>
</g>
<path transform="matrix(1,0,0,-1,104.014,30.326996)" d="M0 0C-.19 .293-.409 .478-.658 .557-.906 .635-1.145 .601-1.374 .452-1.603 .304-1.717 .082-1.718-.212-1.72-.506-1.57-1.086-1.269-1.952-.967-2.818-.867-3.576-.966-4.228-1.066-4.879-1.469-5.434-2.174-5.892-2.879-6.35-3.623-6.457-4.405-6.213-5.188-5.969-5.859-5.415-6.419-4.553-7.228-3.307-7.495-1.886-7.22-.289L-5.258-.502C-5.45-1.832-5.312-2.858-4.845-3.578-4.635-3.9-4.401-4.108-4.143-4.202-3.885-4.296-3.637-4.266-3.401-4.113-3.165-3.959-3.041-3.74-3.029-3.455-3.017-3.169-3.127-2.691-3.359-2.021-3.736-.965-3.888-.111-3.814 .539-3.74 1.189-3.33 1.757-2.584 2.242-1.838 2.727-1.088 2.833-.334 2.559 .42 2.286 1.057 1.748 1.578 .945 1.919 .42 2.17-.164 2.331-.806 2.492-1.448 2.534-2.071 2.457-2.676L.597-2.62C.671-1.601 .472-.728 0 0ZM-12.857 9.104-7.913 11.829-6.339 10.309-8.899 5.282-3.81 7.867-2.179 6.292-11.05 1.819-12.17 2.9-9.116 9.018-15.114 5.744-16.233 6.825-12.073 15.846-10.442 14.271-12.857 9.104ZM-14.779 17.059-15.74 15.46-19.742 17.865-20.737 16.209-17.137 14.046-18.057 12.516-21.657 14.679-22.659 13.012-18.529 10.531-19.483 8.943-25.406 12.502-20.576 20.542-14.779 17.059ZM-29.668 19.169C-28.991 18.937-28.492 18.888-28.171 19.023-27.85 19.159-27.607 19.466-27.443 19.943-27.278 20.421-27.292 20.792-27.485 21.057-27.677 21.323-28.091 21.564-28.725 21.782L-30.21 22.293-31.114 19.667-29.668 19.169ZM-25.423 19.255C-25.912 17.834-26.791 17.11-28.059 17.083L-26.905 13.138-29.341 13.977-30.333 17.483-31.703 17.955-32.678 15.126-34.657 15.807-31.603 24.675-28.241 23.518C-26.863 23.043-25.959 22.472-25.532 21.804-25.104 21.137-25.068 20.287-25.423 19.255ZM-41.63 18.26-40.198 18.16C-39.6 18.118-39.147 18.16-38.837 18.287-38.528 18.413-38.358 18.693-38.328 19.125-38.298 19.558-38.436 19.855-38.743 20.015-39.051 20.175-39.552 20.281-40.248 20.329L-41.48 20.415-41.63 18.26ZM-41.364 22.062-40.374 21.992C-39.794 21.951-39.359 21.984-39.069 22.089-38.779 22.195-38.62 22.455-38.591 22.87-38.562 23.285-38.672 23.568-38.922 23.72-39.171 23.872-39.604 23.969-40.219 24.013L-41.223 24.083-41.364 22.062ZM-39.746 16.353-43.842 16.639-43.188 25.996-39.547 25.741C-38.914 25.697-38.372 25.583-37.923 25.399-37.474 25.215-37.142 24.986-36.929 24.71-36.543 24.199-36.371 23.64-36.414 23.033-36.465 22.301-36.739 21.774-37.237 21.45-37.407 21.336-37.524 21.266-37.588 21.239-37.653 21.212-37.768 21.169-37.934 21.109-37.363 20.944-36.919 20.65-36.603 20.229-36.287 19.808-36.15 19.303-36.191 18.713-36.237 18.063-36.5 17.502-36.981 17.034-37.539 16.49-38.461 16.263-39.746 16.353ZM-52.96 23.586-51.646 16.134-53.708 15.77-55.022 23.223-57.638 22.762-57.953 24.546-50.659 25.832-50.344 24.048-52.96 23.586ZM-60.641 23.904-59.982 22.188-64.04 20.629-63.314 18.738-59.456 20.219-58.797 18.503-62.655 17.022-61.338 13.589-63.292 12.839-66.653 21.596-60.641 23.904ZM-72.281 15.444-71.788 12.516-69.818 13.795-72.281 15.444ZM-66.318 11.46-68.153 12.685-71.451 10.543-71.078 8.369-72.947 7.156-74.657 17.229-72.957 18.333-64.45 12.673-66.318 11.46ZM-79.744 7.254C-79.221 7.743-78.943 8.16-78.912 8.507-78.881 8.854-79.038 9.212-79.383 9.582-79.728 9.952-80.062 10.114-80.386 10.068-80.711 10.022-81.118 9.771-81.609 9.313L-82.757 8.243-80.863 6.211-79.744 7.254ZM-77.827 11.042C-76.802 9.943-76.575 8.827-77.146 7.695L-73.122 6.862-75.006 5.105-78.567 5.874-79.627 4.887-77.587 2.698-79.118 1.27-85.514 8.13-82.914 10.555C-81.847 11.549-80.919 12.079-80.129 12.143-79.338 12.207-78.571 11.84-77.827 11.042ZM-83.898-2.224C-83.353-1.351-83.252-.422-83.597 .563L-81.714 .968C-81.261-.569-81.418-1.951-82.183-3.176-82.949-4.401-83.966-5.169-85.235-5.478-86.505-5.787-87.729-5.573-88.909-4.836-90.088-4.099-90.82-3.08-91.105-1.779-91.389-.478-91.165 .757-90.436 1.925-89.62 3.23-88.441 4.012-86.897 4.271L-86.335 2.385C-87.384 2.259-88.169 1.779-88.69 .945-89.108 .278-89.246-.43-89.106-1.176-88.966-1.923-88.526-2.527-87.787-2.99-87.047-3.452-86.313-3.599-85.586-3.431-84.859-3.263-84.297-2.861-83.898-2.224" fill="#a4232f"/>
<path transform="matrix(1,0,0,-1,89.469,99.95)" d="M0 0C.573 .429 .893 .815 .962 1.156 1.03 1.498 .912 1.871 .609 2.275 .306 2.68-.009 2.877-.337 2.866-.664 2.856-1.096 2.649-1.633 2.247L-2.89 1.306-1.224-.917 0 0ZM2.313 3.56C3.214 2.358 3.319 1.224 2.63 .159L6.542-1.101 4.48-2.646 1.022-1.498-.138-2.367 1.656-4.762-.019-6.017-5.643 1.49-2.797 3.622C-1.63 4.496-.651 4.923 .142 4.902 .935 4.88 1.658 4.433 2.313 3.56ZM-9.957-3.752-9.833-6.718-7.72-5.694-9.957-3.752ZM-4.538-8.447-6.206-7.004-9.744-8.7168-9.646-10.921-11.651-11.892-12.092-1.684-10.269-.801-2.533-7.476-4.538-8.447ZM-19.6-11.982-18.2-11.662C-17.616-11.529-17.195-11.358-16.935-11.147-16.676-10.937-16.594-10.62-16.69-10.197-16.787-9.7738-17.006-9.5298-17.346-9.4648-17.687-9.4008-18.197-9.4458-18.877-9.6008L-20.081-9.8748-19.6-11.982ZM-20.447-8.266-19.479-8.046C-18.912-7.916-18.506-7.759-18.259-7.574-18.012-7.39-17.935-7.094-18.027-6.689-18.119-6.284-18.307-6.044-18.59-5.971-18.872-5.898-19.315-5.93-19.916-6.067L-20.898-6.29-20.447-8.266ZM-17.245-13.261-21.248-14.174-23.333-5.029-19.774-4.218C-19.155-4.076-18.603-4.029-18.12-4.075-17.637-4.121-17.254-4.244-16.969-4.446-16.452-4.823-16.126-5.309-15.991-5.901-15.828-6.617-15.938-7.201-16.32-7.656-16.449-7.814-16.541-7.915-16.595-7.959-16.649-8.004-16.747-8.079-16.888-8.184-16.293-8.177-15.783-8.329-15.359-8.6408-14.935-8.9518-14.657-9.3958-14.526-9.9718-14.381-10.608-14.471-11.221-14.796-11.808-15.172-12.49-15.989-12.975-17.245-13.261ZM-32.424-9.8958C-31.709-9.9348-31.216-9.8458-30.944-9.6278-30.672-9.4098-30.522-9.0478-30.494-8.544-30.467-8.039-30.581-7.685-30.839-7.484-31.097-7.281-31.56-7.161-32.23-7.125L-33.798-7.038-33.951-9.8108-32.424-9.8958ZM-28.364-8.6548C-28.447-10.155-29.094-11.092-30.306-11.464L-28.119-14.944-30.692-14.802-32.604-11.699-34.051-11.62-34.216-14.608-36.306-14.492-35.789-5.127-32.238-5.323C-30.782-5.403-29.758-5.707-29.164-6.232-28.57-6.757-28.304-7.565-28.364-8.6548ZM-37.594-5.079-38.082-6.879-42.589-5.658-43.094-7.523-39.041-8.6208-39.507-10.344-43.561-9.2458-44.07-11.123-39.42-12.383-39.904-14.17-46.575-12.363-44.122-3.31-37.594-5.079ZM-46.16-2.803-46.983-4.477-51.174-2.418-52.026-4.152-48.256-6.004-49.043-7.606-52.813-5.755-53.67-7.501-49.347-9.6238-50.163-11.287-56.366-8.24-52.231 .179-46.16-2.803ZM-62.874-1.995-61.729-2.863C-61.252-3.225-60.849-3.437-60.521-3.501-60.193-3.564-59.898-3.423-59.636-3.077-59.374-2.732-59.327-2.407-59.497-2.105-59.666-1.803-60.029-1.441-60.585-1.019L-61.568-.274-62.874-1.995ZM-60.572 1.042-59.78 .442C-59.317 .091-58.935-.12-58.635-.191-58.334-.261-58.059-.13-57.807 .201-57.556 .533-57.493 .831-57.619 1.094-57.745 1.358-58.054 1.676-58.546 2.049L-59.348 2.657-60.572 1.042ZM-62.339-4.623-65.612-2.143-59.946 5.333-57.037 3.128C-56.531 2.744-56.141 2.353-55.865 1.954-55.59 1.554-55.438 1.181-55.409 .833-55.366 .194-55.528-.368-55.895-.852-56.339-1.437-56.857-1.729-57.451-1.728-57.655-1.73-57.791-1.725-57.86-1.712-57.929-1.699-58.049-1.672-58.221-1.632-57.833-2.083-57.622-2.571-57.588-3.097-57.554-3.622-57.715-4.12-58.072-4.591-58.466-5.111-58.994-5.436-59.652-5.565-60.417-5.714-61.313-5.401-62.339-4.623" fill="#a4232f"/>
<path transform="matrix(1,0,0,-1,97.587,84.076999)" d="M0 0C-3.067-3.483-2.632-7.145-1.602-9.413 2.414-12.271 5.347-9.98 7.849-7.822 5.238-6.186 3.15-5.942 1.517-6.546 2.164-4.569 1.112-2.168 0 0ZM14.86 39.85C15.835 37.278 15.89 35.036 12.339 32.852 8.998 32.662 7.164 34.106 6.396 37.826 8.728 37.252 10.56 36.702 11.552 35.272 11.718 36.546 13.007 37.629 14.86 39.85ZM8.481 44.594C8.213 41.295 8.364 40.409 11.384 37.813 12.419 40.492 12.083 42.974 8.481 44.594ZM6.963 31.84C8.135 27.349 9.516 26.161 13.23 25.747 17.844 27.478 17.299 30.433 16.91 33.714 14.247 32.312 13.364 30.849 12.615 29.017 11.348 30.365 9.487 31.537 6.963 31.84ZM7.277 25.743C7.602 21.113 9.756 19.045 12.852 17.991 17.706 18.843 18.135 22.539 18.357 25.836 15.359 25.126 13.718 23.812 13.001 22.225 12.049 24.074 9.6 25.012 7.277 25.743ZM3.742 6.686C1.293 2.744 2.329-.795 3.72-2.862V-2.863C8.153-5.016 10.666-2.271 12.777 .271 9.931 1.452 7.832 1.347 6.322 .481 6.632 2.538 5.198 4.732 3.742 6.686ZM6.12 12.431C4.775 7.989 6.144 5.172 8.57 3.202 13.409 2.269 15.126 5.57 16.507 8.573 13.452 8.977 11.451 8.332 10.216 7.105 9.985 9.172 8.031 10.92 6.12 12.431ZM6.929 18.595C6.78 13.956 8.656 11.664 11.684 10.314 16.6 10.666 17.404 14.299 17.961 17.557 14.906 17.157 13.14 16.016 12.265 14.511 11.505 16.449 9.166 17.63 6.929 18.595" fill="#a4232f" fill-rule="evenodd"/>
<path transform="matrix(1,0,0,-1,14.958,71.645999)" d="M0 0C1.345-4.442-.024-7.259-2.45-9.229-7.2892-10.162-9.0062-6.861-10.387-3.858-7.3326-3.454-5.3314-4.099-4.097-5.326-3.865-3.259-1.911-1.511 0 0ZM2.377-5.745C4.826-9.687 3.791-13.226 2.4-15.293V-15.294C-2.033-17.447-4.547-14.702-6.6577-12.16-3.812-10.979-1.712-11.084-.202-11.949-.513-9.892 .922-7.699 2.377-5.745ZM-1.157 13.312C-1.482 8.683-3.636 6.614-6.7319 5.56H-6.7322C-11.586 6.412-12.015 10.108-12.237 13.406-9.2389 12.696-7.5985 11.381-6.8816 9.794-5.9292 11.644-3.481 12.581-1.157 13.312ZM-.843 19.409C-2.015 14.918-3.396 13.73-7.1101 13.316H-7.1103C-11.725 15.047-11.179 18.002-10.79 21.283-8.1277 19.881-7.2444 18.418-6.4955 16.586-5.2279 17.935-3.367 19.106-.843 19.409ZM-8.7406 27.419C-9.7154 24.847-9.7698 22.605-6.2197 20.421H-6.2194C-2.878 20.231-1.045 21.676-.276 25.395-2.608 24.821-4.44 24.271-5.4319 22.841-5.5981 24.116-6.8873 25.198-8.7406 27.419ZM-2.361 32.163C-2.093 28.864-2.245 27.979-5.2647 25.382-6.2997 28.061-5.9632 30.543-2.361 32.163ZM5.957-12.431C9.024-15.914 8.589-19.575 7.559-21.844 3.543-24.701 .611-22.411-1.892-20.253 .719-18.616 2.807-18.373 4.44-18.977 3.793-17 4.845-14.599 5.957-12.431ZM-.809 6.164C-.66 1.525-2.537-.766-5.5646-2.117-10.48-1.765-11.285 1.869-11.842 5.126-8.7862 4.726-7.0205 3.585-6.1452 2.08-5.3858 4.018-3.047 5.199-.809 6.164" fill="#a4232f" fill-rule="evenodd"/>
<path transform="matrix(1,0,0,-1,76.692,57.626)" d="M0 0C.351 0 .635-.285 .635-.636 .635-.987 .351-1.271 0-1.271-.352-1.271-.636-.987-.636-.636-.636-.285-.352 0 0 0ZM-2.251-.722C-1.796-.722-1.427-1.091-1.427-1.547-1.427-2.002-1.796-2.371-2.251-2.371-2.707-2.371-3.076-2.002-3.076-1.547-3.076-1.091-2.707-.722-2.251-.722ZM-4.537-1.718C-4.243-1.718-4.004-1.957-4.004-2.251-4.004-2.545-4.243-2.784-4.537-2.784-4.831-2.784-5.069-2.545-5.069-2.251-5.069-1.957-4.831-1.718-4.537-1.718ZM2.887-.619C3.181-.619 3.419-.857 3.419-1.151 3.419-1.446 3.181-1.684 2.887-1.684 2.592-1.684 2.354-1.446 2.354-1.151 2.354-.857 2.592-.619 2.887-.619ZM4.953-1.353C5.447-1.353 5.847-1.754 5.847-2.247 5.847-2.741 5.447-3.14 4.953-3.14 4.46-3.14 4.06-2.741 4.06-2.247 4.06-1.754 4.46-1.353 4.953-1.353ZM-6.554-.32C-6.043-.32-5.629-.734-5.629-1.245-5.629-1.756-6.043-2.171-6.554-2.171-7.065-2.171-7.479-1.756-7.479-1.245-7.479-.734-7.065-.32-6.554-.32ZM-10.002-.997C-9.707-.997-9.469-1.235-9.469-1.529-9.469-1.824-9.707-2.062-10.002-2.062-10.296-2.062-10.534-1.824-10.534-1.529-10.534-1.235-10.296-.997-10.002-.997ZM9.085-4.351C9.045-4.478 9.018-4.592 9.003-4.694 10.23-4.518 11.62-4.429 12.649-4.731 12.664-4.697 12.679-4.661 12.693-4.624 12.749-4.476 12.797-4.316 12.833-4.144 12.91-3.8 12.845-3.538 12.688-3.351 12.545-3.18 12.326-3.057 12.066-2.981 11.783-2.898 11.454-2.871 11.119-2.897 10.397-2.955 9.671-3.258 9.342-3.781 9.245-3.937 9.158-4.125 9.085-4.351ZM6.684-8.328 6.483-25.779C6.643-29.236 .476-30.969-3.007-30.969-6.49-30.969-12.657-29.236-12.497-25.779L-12.672-10.518C-12.428-10.601-12.166-10.647-11.894-10.647-11.382-10.647-10.908-10.486-10.52-10.212L-10.441-17.545C-10.427-18.966-10.394-20.251-9.39-21.298-8.736-21.981-7.176-22.565-6.182-22.831-5.123-23.113-4.715-23.604-4.715-24.5V-26.703C-4.715-28.361-4.297-29.039-3.007-29.039-1.717-29.039-1.298-28.361-1.298-26.703V-24.5C-1.298-23.605-.891-23.113 .169-22.831 1.162-22.565 2.723-21.981 3.377-21.298 4.38-20.252 4.413-18.966 4.428-17.545L4.547-6.388C5.673-6.256 6.145-6.12 6.71-5.972L6.684-8.328ZM12.814-5.666C12.994-5.772 13.158-5.986 13.305-6.123L13.268-6.132C12.628-6.3 11.978-6.678 11.322-7.234 10.392-6.996 9.648-7.036 9.06-7.219 8.405-7.422 7.946-7.799 7.637-8.171L7.586-8.182 7.421-8.208 7.449-5.796 7.589-5.767C9.473-5.39 11.702-5.141 12.814-5.666ZM-1.484 .642C-1.707 .435-2.03 .36-2.326 .458-2.784 .61-2.907 .755-3.446 .755-3.67 .755-3.883 .723-4.08 .663-4.266 .606-4.441 .525-4.602 .424-4.855 .22-5.21 .177-5.509 .327-5.947 .548-6.076 .683-6.597 .683-6.841 .683-7.077 .633-7.293 .542-7.498 .456-7.686 .334-7.844 .182-8.056-.063-8.397-.17-8.718-.076-9.074 .026-9.234 .117-9.628 .117-10.146 .117-10.621-.063-10.992-.363-11.355-.657-11.62-1.065-11.729-1.53-11.768-1.811-11.946-2.066-12.221-2.189-12.643-2.373-12.957-2.606-13.215-2.993-13.444-3.335-13.577-3.748-13.577-4.191-13.577-4.545-13.491-4.883-13.338-5.18-13.229-5.391-13.086-5.583-12.914-5.748-12.789-6.131-12.814-6.499-12.876-6.785-12.99-7.315-13.376-7.737-13.376-8.26-13.376-9.078-12.712-9.742-11.894-9.742-10.637-9.742-10.309-8.508-10.262-7.506-10.222-6.654-10.436-6.289-10.833-5.61-10.153-5.702-9.652-5.929-9.263-6.185-8.388-6.756-7.771-7.69-7.625-8.773-8.352-8.991-8.95-9.738-8.95-10.505-8.95-11.009-8.738-11.461-8.408-11.791-6.451-13.749-6.855-14.46-6.855-15.267V-16.284C-6.855-17.789-7.766-17.353-7.766-18.656-7.766-19.031-7.614-19.373-7.368-19.618-7.122-19.864-6.781-20.017-6.406-20.017-5.821-20.017-5.463-19.677-5.316-19.306-5.11-18.79-5.261-18.138-5.331-17.593-5.403-17.036-5.497-16.496-5.497-16.14-5.497-14.786-5.087-14.474-4.832-13.965-4.701-13.703-4.601-13.426-4.61-13.161-4.619-12.903-4.733-12.655-4.966-12.445-5.12-12.306-5.255-12.163-5.26-11.914-5.266-11.661-4.981-11.463-4.713-11.147-4.607-11.022-4.514-10.884-4.438-10.737-4.287-10.442-4.202-10.109-4.202-9.754-4.202-8.942-4.651-8.235-5.315-7.869-4.864-6.706-4.048-5.726-3.007-5.07-1.966-5.726-1.149-6.706-.699-7.869-1.883-8.524-2.18-10.119-1.309-11.147-1.12-11.369-.926-11.533-.827-11.698-.714-11.888-.744-12.138-.874-12.312-1.135-12.66-1.518-12.887-1.763-13.25-1.898-13.451-1.99-13.695-1.985-14.043-1.98-14.45-1.792-14.454-1.426-14.759-.016-15.938-.348-16.636-.715-18.298-.816-18.754-.863-19.246-.568-19.553-.316-19.814 .016-20.017 .392-20.017 .767-20.017 1.108-19.864 1.354-19.618 1.6-19.373 1.753-19.031 1.753-18.656 1.753-17.353 .842-17.789 .842-16.284V-14.775L.84-14.364C.84-12.564 1.344-13.458 2.219-12.583 2.511-12.291 2.7-11.89 2.7-11.441 2.7-10.743 2.003-10.15 1.472-9.935 1.505-9.19 1.622-8.324 1.954-7.646 2.43-6.677 3.321-5.948 4.394-5.689 5.46-5.432 7.971-5.225 7.434-3.466 7.355-3.242 7.238-3.033 7.088-2.846 6.96-2.698 6.882-2.505 6.882-2.297 6.882-1.761 6.76-1.323 6.358-.92 5.922-.485 5.507-.407 4.956-.397 4.731-.392 4.51-.298 4.35-.123 4.141 .106 4.078 .257 3.746 .429 3.313 .652 2.789 .653 2.358 .43 2.057 .243 1.662 .263 1.379 .495 .9 .893 .508 1.114-.136 1.114-.632 1.114-1.098 .953-1.484 .642ZM8.836-8.198C8.862-8.205 8.886-8.213 8.911-8.221 9.316-8.355 9.619-8.586 9.876-8.814 10.15-9.058 10.267-9.421 10.289-9.79 10.339-10.638 10.03-11.128 9.386-11.581 10.017-11.794 10.78-11.862 11.561-11.818 12.943-11.741 14.357-11.312 15.19-10.708V-10.709C15.331-10.603 15.448-10.48 15.544-10.346 15.848-9.92 15.943-9.367 15.892-8.823 15.839-8.266 15.634-7.725 15.342-7.336 15.237-7.195 15.121-7.076 14.998-6.987 14.732-6.841 14.461-6.758 14.183-6.734L13.47-6.918C12.876-7.07 12.307-7.462 11.846-7.854L11.526-8.124 11.12-8.02C10.532-7.869 9.889-7.81 9.301-7.993 9.136-8.045 8.98-8.113 8.836-8.198ZM8.707-12.614C8.928-12.72 9.127-12.848 9.304-12.98 9.664-13.25 9.927-13.54 10.065-13.707 10.185-13.85 10.373-14.231 10.446-14.658 10.49-14.916 10.497-15.199 10.432-15.473 10.368-15.744 10.234-16.003 9.997-16.218 10.374-16.274 10.784-16.295 11.217-16.281 11.312-16.277 11.42-16.271 11.538-16.263 12.16-16.22 12.685-16.155 13.125-16.049 13.547-15.947 13.893-15.807 14.176-15.611 14.703-15.248 15.1-14.865 15.386-14.483 15.779-13.956 15.956-13.432 15.974-12.954 15.991-12.486 15.856-12.06 15.621-11.719 15.547-11.612 15.463-11.513 15.37-11.424 14.423-12.019 12.99-12.433 11.599-12.511 10.832-12.554 10.072-12.495 9.403-12.309 9.146-12.386 8.911-12.484 8.707-12.614ZM9.387-17.114C10.663-17.427 11.824-18.629 10.696-19.776 10.568-19.905 10.417-20.025 10.252-20.135 10.421-20.178 10.601-20.213 10.79-20.239 11.799-20.378 13.211-20.355 14.08-19.794 14.522-19.508 15.006-19.037 15.318-18.507 15.555-18.105 15.689-17.676 15.615-17.287 15.496-16.665 15.164-16.174 14.945-15.905 13.505-17.043 11.86-17.085 10.09-16.89 9.839-16.931 9.6-17.007 9.387-17.114ZM9.421-19.808C9.727-19.662 10.007-19.487 10.201-19.29 10.991-18.486 9.716-17.906 9.033-17.744 8.936-17.721 8.838-17.698 8.736-17.672 8.583-17.905 8.505-18.186 8.534-18.507 8.576-18.962 8.791-19.336 9.145-19.62 9.23-19.687 9.322-19.75 9.421-19.808ZM9.015-15.957C9.23-15.905 9.388-15.826 9.503-15.731 9.641-15.616 9.719-15.469 9.756-15.313 9.797-15.138 9.791-14.95 9.762-14.775 9.71-14.472 9.6-14.229 9.533-14.149 9.416-14.009 9.193-13.762 8.889-13.534 8.683-13.38 8.442-13.235 8.172-13.139 7.964-13.468 7.852-13.911 7.871-14.504V-14.505L7.876-14.57C7.916-15.157 8.269-15.588 8.82-15.868 8.883-15.899 8.948-15.929 9.015-15.957ZM8.67-11.233C9.365-11.067 10.202-10.033 9.414-9.333 9.212-9.152 8.979-8.973 8.694-8.878 8.505-8.816 8.285-8.786 8.023-8.812 7.774-9.184 7.724-9.644 7.835-10.074 7.959-10.551 8.267-10.956 8.67-11.233ZM14.068-20.568C13.649-20.727 13.109-20.817 12.525-20.856 12.026-20.889 11.489-20.886 10.969-20.859 11.058-20.98 11.124-21.131 11.161-21.319 11.172-21.374 11.178-21.428 11.178-21.48 11.178-21.933 10.806-22.295 10.329-22.559 10.195-22.632 10.052-22.699 9.908-22.758 10.097-22.934 10.366-23.107 10.666-23.254 11.69-23.756 14.013-23.922 14.206-22.317 14.295-21.572 14.171-20.937 14.068-20.568ZM9.616-21.015C9.569-21.131 9.538-21.265 9.521-21.405 9.49-21.655 9.505-21.918 9.561-22.148 9.71-22.092 9.858-22.025 9.995-21.95 10.269-21.799 10.482-21.629 10.482-21.48 10.482-21.471 10.482-21.463 10.48-21.455 10.42-21.153 10.042-21.07 9.616-21.015ZM11.86-24.329C11.245-24.711 10.517-24.977 9.739-25.131L7.222-25.628 7.25-23.17 7.743-23.072C8.327-22.958 8.662-22.886 9.119-22.789 9.345-23.296 9.881-23.64 10.362-23.876 10.844-24.113 11.389-24.283 11.86-24.329ZM-19.649-4.517C-19.519-4.854-19.321-5.133-18.946-5.206-18.536-5.287-17.86-5.207-17.441-5.207-17.023-5.207-16.346-5.287-15.936-5.206-15.561-5.133-15.363-4.854-15.233-4.517-15.102-4.179-15.068-3.949-15.093-3.794-15.169-3.353-15.941-3.57-16.288-3.592-16.784-3.624-17.311-3.657-17.441-3.657-17.572-3.657-18.099-3.624-18.594-3.592-19.447-3.537-20.128-3.279-19.649-4.517ZM-15.256 5.548C-15.152 5.211-15.044 4.941-14.949 4.707-14.752 4.216-14.478 3.296-14.002 3.571-13.825 3.674-13.797 3.911-13.86 4.161-13.911 4.364-14.029 4.594-14.226 4.834-14.448 5.07-14.713 5.284-15.036 5.448-15.106 5.483-15.18 5.517-15.256 5.548ZM-9.193 16.1C-10.492 17.228-12.705 14.705-14.263 14.545-14.5 14.521-14.836 14.616-15.045 14.84-15.348 15.165-15.293 15.627-15.067 15.825-14.541 15.354-13.795 15.543-13.216 15.775-12.481 16.07-11.784 16.563-10.994 16.789-10.14 17.035-9.701 16.801-9.05 16.139-9.097 16.126-9.146 16.113-9.193 16.1ZM-25.689 16.1C-24.39 17.228-22.178 14.705-20.62 14.545-20.382 14.521-20.046 14.616-19.837 14.84-19.534 15.165-19.59 15.627-19.815 15.825-20.341 15.354-21.087 15.543-21.666 15.775-22.401 16.07-23.098 16.563-23.888 16.789-24.743 17.035-25.182 16.801-25.833 16.139-25.785 16.126-25.737 16.113-25.689 16.1ZM-27.223-20.678C-27.694-20.678-28.077-21.061-28.077-21.532-28.077-22.003-27.694-22.385-27.223-22.385-26.752-22.385-26.369-22.003-26.369-21.532-26.369-21.061-26.752-20.678-27.223-20.678ZM-34.587-18.076C-34.587-17.128-34.382-16.223-34.024-15.636-33.737-15.166-33.353-14.876-32.913-14.876-32.472-14.876-32.088-15.166-31.8-15.636-31.442-16.223-31.237-17.128-31.237-18.076-31.237-19.024-31.442-19.929-31.8-20.516-32.088-20.987-32.472-21.276-32.913-21.276-33.353-21.276-33.737-20.987-34.024-20.516-34.382-19.929-34.587-19.024-34.587-18.076ZM-32.913-13.767C-35.512-13.767-36.667-15.685-36.667-18.076-36.667-20.467-35.512-22.385-32.913-22.385-30.313-22.385-29.158-20.467-29.158-18.076-29.158-15.685-30.313-13.767-32.913-13.767ZM-40.346-17.551-45.818-9.84H-48.02V-10.157L-47.011-10.987V-21.115L-48.02-21.945V-22.262H-44.724V-21.945L-45.732-21.115V-15.154L-45.757-13.782H-45.628L-45.098-14.698-39.736-22.262H-38.644V-10.987L-37.636-10.157V-9.84H-40.932V-10.157L-39.923-10.987V-17.198L-39.887-18.202H-40.015L-40.346-17.551ZM-19.522 3.155C-19.191 2.6-18.59 2.227-17.917 2.051L-17.918 2.041C-17.84 .513-19.061-1.104-19.974-1.768-21.459-2.847-23.372-2.774-25.335-2.32-27.716-1.771-30.007-.625-32.333-.161-33.907 .153-35.504 .087-36.488-1.195-37.109-2.006-36.892-3.269-36.249-3.759-35.716-4.165-34.892-4.103-34.41-3.632-34.048-3.277-33.982-2.639-34.222-1.939-33.331-1.454-32.502-1.824-32.112-2.576-31.559-3.642-31.843-5.435-33.712-6.29-35.149-6.946-37.097-6.759-38.105-5.313-38.615-4.59-38.877-3.656-38.856-2.707-38.853-2.568-38.843-2.42-38.825-2.265-38.668-.927-38.184-.095-37.465 .477-36.319 1.391-34.664 1.74-32.982 2.105-32.313 2.25-32.236 2.495-32.106 2.826-33.964 2.435-36.516 2.177-37.924 1.055-38.793 .363-39.375-.621-39.558-2.181-39.577-2.344-39.588-2.516-39.592-2.693-39.618-3.859-39.27-5.064-38.528-5.976-40.708-5.44-40.551-2.805-40.227-1.083-40.008 .046-39.434 1.339-38.162 2.12-38.494 2.262-38.923 2.245-39.306 2.043-39.717 1.827-40.08 1.405-40.319 .938-40.688 .214-40.881-.597-40.951-.944-41.086-1.641-41.119-2.353-41.075-3.017-41.089-2.979-41.104-2.941-41.117-2.904-41.519-1.796-41.589-.547-41.287 .589-41.014 1.62-40.434 2.557-39.52 3.204-38.837 3.688-37.99 3.917-37.138 3.991-34.429 4.225-30.364 3.659-28.227 5.411-27.31 4.045-25.132 1.714-23.528 1.288-22.447 1-21.209 1.329-20.39 2.077-20.242 2.212-20.056 2.42-19.886 2.637-19.75 2.81-19.62 2.994-19.522 3.155ZM-28.547 15.105C-28.466 14.857-28.15 14.815-27.982 14.994-27.908 15.073-27.935 15.233-27.799 15.337-27.58 15.504-27.165 15.542-26.745 15.486-24.75 15.217-22.948 13.312-21.097 12.718-20.593 12.556-20.129 12.519-19.723 12.593-18.882 11.046-18.773 10.954-18.741 9.012-18.721 7.802-18.817 6.964-18.954 6.349-19.391 6.288-19.769 6.163-20.097 5.997-20.491 5.797-20.812 5.538-21.079 5.253L-21.091 5.239C-21.358 4.918-21.521 4.6-21.593 4.31-21.772 3.594-21.416 2.936-20.645 2.875-20.733 2.775-20.816 2.687-20.887 2.623-23.689 .811-26.552 4.501-27.776 6.345L-27.97 6.647-28.217 6.485C-28.879 6.048-30.391 5.333-31.105 5.33-31.629 8.861-31.751 9.758-30.078 13.251-28.582 16.375-30.057 20.408-27.419 22.761-26.1 23.938-24.55 23.6-23.051 23.123-20.422 22.288-19.875 21.88-17.44 23.075-15.006 21.88-14.459 22.288-11.83 23.123-10.331 23.6-8.781 23.938-7.461 22.761-4.824 20.408-6.299 16.375-4.802 13.251-3.13 9.758-3.252 8.861-3.776 5.33-4.49 5.333-6.002 6.048-6.663 6.485L-6.91 6.647-7.105 6.345C-8.418 4.367-11.152 .715-13.994 2.623-14.064 2.687-14.147 2.774-14.234 2.874L-14.244 2.873C-13.45 2.918-13.082 3.583-13.263 4.31-13.336 4.6-13.499 4.918-13.766 5.239L-13.778 5.253C-14.044 5.538-14.365 5.797-14.759 5.997-14.964 6.101-15.189 6.188-15.435 6.254-15.573 6.923-15.668 7.803-15.649 9.012-15.618 10.964-15.504 11.006-14.687 12.555-14.408 12.563-14.107 12.614-13.786 12.718-11.934 13.312-10.133 15.217-8.137 15.486-7.717 15.542-7.303 15.504-7.084 15.337-6.948 15.233-6.975 15.073-6.9 14.994-6.732 14.815-6.416 14.857-6.336 15.105-6.225 15.446-6.718 15.957-7.004 16.125-7.355 16.331-7.778 16.394-8.275 16.383-10.141 18.842-11.935 17.33-13.165 16.778-14.394 16.228-14.465 16.708-14.945 17.005-15.335 17.246-16.203 17.422-16.643 16.559-16.876 16.1-16.868 15.579-16.863 15.065-16.852 13.998-16.446 13.179-15.745 12.795-16.587 11.15-16.722 11.077-16.755 9.021-16.797 6.418-16.326 5.417-16.006 4.736-15.868 4.444-15.763 4.22-15.763 3.954-15.763 3.607-15.928 3.345-16.177 3.162-16.509 2.918-16.984 2.802-17.441 2.802-17.899 2.802-18.374 2.918-18.705 3.162-18.954 3.345-19.12 3.607-19.12 3.954-19.12 4.22-19.014 4.444-18.876 4.736-18.556 5.417-18.085 6.418-18.128 9.021-18.161 11.076-18.295 11.152-19.138 12.797-18.45 13.17-18.031 13.964-18.02 15.065-18.014 15.578-18.007 16.1-18.24 16.559-18.679 17.422-19.547 17.246-19.938 17.005-20.418 16.708-20.488 16.228-21.718 16.778-22.948 17.33-24.742 18.842-26.607 16.383-27.105 16.394-27.527 16.331-27.878 16.125-28.165 15.957-28.657 15.446-28.547 15.105ZM-11.419 11.171C-11.335 11.049-11.244 10.969-11.037 10.969-10.83 10.969-10.575 11.225-10.575 11.431-10.575 11.637-10.654 11.728-10.774 11.811-10.832 11.815-10.888 11.817-10.944 11.819-10.928 11.771-10.919 11.827-10.919 11.664-10.919 11.5-11.141 11.171-11.412 11.171H-11.419ZM-10.188 10.61C-9.982 10.823-9.856 11.231-9.856 11.431-9.856 11.63-9.864 11.589-9.879 11.664-9.466 11.557-9.037 11.386-8.621 11.136-8.519 11.074-8.531 10.96-8.663 10.906-8.912 10.803-9.493 10.688-10.188 10.61ZM-12.2 11.633C-12.212 11.568-12.218 11.649-12.218 11.431-12.218 11.213-12.051 10.737-11.789 10.521-12.375 10.519-12.921 10.55-13.294 10.603-12.968 11.084-12.666 11.438-12.2 11.633ZM-14.307 10.308C-14.159 10.641-13.983 10.96-13.779 11.255-12.902 12.515-11.485 13.301-9.326 12.504-7.279 11.738-6.665 12.712-6.358 12.846-6.13 12.945-5.742 12.665-6.045 11.931-6.297 11.321-7.051 10.991-7.721 10.939-7.563 10.824-6.098 9.658-6.043 9.48-6.022 9.412-6.032 9.334-6.075 9.269-6.152 9.157-6.304 9.128-6.417 9.205-8.502 10.47-9.147 9.953-10.934 9.804-11.946 9.72-13.586 9.757-14.307 10.308ZM-24.695 10.61C-24.9 10.823-25.027 11.231-25.027 11.431-25.027 11.63-25.019 11.589-25.003 11.664-25.417 11.557-25.846 11.386-26.261 11.136-26.364 11.074-26.352 10.96-26.219 10.906-25.971 10.803-25.39 10.688-24.695 10.61ZM-22.682 11.633C-22.671 11.568-22.665 11.649-22.665 11.431-22.665 11.213-22.832 10.737-23.094 10.521-22.508 10.519-21.961 10.55-21.589 10.603-21.914 11.084-22.216 11.438-22.682 11.633ZM-20.575 10.308C-20.724 10.641-20.899 10.96-21.104 11.255-21.98 12.515-23.397 13.301-25.557 12.504-27.603 11.738-28.217 12.712-28.525 12.846-28.753 12.945-29.141 12.665-28.838 11.931-28.585 11.321-27.831 10.991-27.162 10.939-27.319 10.824-28.785 9.658-28.839 9.48-28.86 9.412-28.851 9.334-28.807 9.269-28.731 9.157-28.578 9.128-28.466 9.205-26.38 10.47-25.735 9.953-23.948 9.804-22.937 9.72-21.296 9.757-20.575 10.308ZM-23.59 11.815C-23.466 11.732-23.384 11.639-23.384 11.431-23.384 11.223-23.639 10.969-23.846 10.969-24.052 10.969-24.144 11.049-24.227 11.171H-24.221C-23.949 11.171-23.728 11.5-23.728 11.664-23.728 11.827-23.737 11.771-23.753 11.82-23.698 11.819-23.643 11.818-23.59 11.815ZM-7.329 1.395C-6.935 1.561-6.511 1.646-6.084 1.646-5.423 1.646-4.905 1.282-3.983 1.564-3.643 1.668-3.289 1.719-2.933 1.719-2.316 1.719-2.072 1.607-1.655 1.452-1.404 1.63-1.132 1.77-.846 1.872-1.193 1.952-1.545 2.028-1.898 2.105-2.567 2.25-2.645 2.495-2.775 2.826-1.116 2.476 1.096 2.234 2.553 1.387 3.026 1.566 3.539 1.609 4.035 1.526 3.816 1.745 3.567 1.945 3.282 2.12 3.613 2.262 4.042 2.245 4.426 2.043 4.836 1.827 5.2 1.405 5.438 .938L5.49 .832C5.577 .749 5.658 .659 5.751 .556 5.994 .54 6.222 .508 6.44 .454L6.407 .589C6.134 1.62 5.553 2.557 4.639 3.204 3.956 3.688 3.11 3.917 2.257 3.991-.452 4.225-4.517 3.659-6.653 5.411-7.57 4.045-9.749 1.714-11.353 1.288-12.434 1-13.671 1.329-14.491 2.077-14.639 2.212-14.825 2.42-14.995 2.637L-15.029 2.681C-15.051 2.658-15.073 2.635-15.096 2.614-15.566 2.166-16.257 1.945-16.966 1.936V1.935C-16.984 .439-15.798-1.12-14.907-1.768-14.526-2.044-14.117-2.245-13.686-2.383-13.561-2.227-13.426-2.089-13.278-1.968-13.06-1.777-12.819-1.616-12.553-1.477-12.458-1.128-12.303-.802-12.102-.505L-12.101-.504-12.099-.5C-11.933-.24-11.722-.008-11.482 .191-11.446 .223-11.409 .254-11.371 .285-10.732 .803-9.937 1.081-9.115 1.081-8.366 1.041-8.5 .929-7.329 1.395ZM-17.441 37.359C-16.701 37.359-15.965 37.336-15.235 37.296-18.038 33.135-15.46 32.881-16.71 27.291-14.887 28.805-14.349 31.486-11.801 33.494-9.705 35.145-7.51 35.684-5.157 35.179-2.807 34.674-.299 33.131 2.426 30.616 3.723 29.42 4.771 28.388 5.863 28.146 6.484 28.009 7.136 27.995 7.798 28.084 9.255 26.845 10.62 25.5 11.881 24.061 6.57 22.287 3.898 23.439-.435 28.162-2.829 30.771-5.358 33.163-9.428 31.417-11.531 30.516-13.811 28.493-15.24 26.037-10.442 28.421-5.05 31.842-2.361 25.301 .785 17.648 4.178 20.541 8.985 19.057 12.679 17.917 14.227 11.94 17.867 12.157 18.275 12.203 18.651 12.235 19 12.25 20.273 8.909 21.101 5.347 21.408 1.638 17.942 3.671 13.339 4.115 12.078 7.421 10.166 12.437 10.64 15.314 3.889 15.613 1.374 15.724-1.224 16.17-3.925 22.668-5.138 25.587-7.191 27.194-10.452 26.246-12.118 25.762-13.863 24.721-15.782 23.84-15.521 23.688-15.195 23.678-14.833 23.744-11.622 24.329-6.865 27.62-4.683 21.788-4.039 20.066-4.06 18.042-2.993 16.302-1.344 13.614 3.146 14.047 5.101 12.336 7.057 10.625 7.274 6.116 8.823 3.59 11.95-1.513 18.073-3.424 19-10.095 19.828-16.054 16.548-21.567 12.948-26.043 5.803-34.925-5.155-40.609-17.441-40.609-22.29-40.609-26.932-39.724-31.215-38.106-26.107-36.991-20.554-33.105-18.037-26.613-17.156-24.339-16.666-21.892-16.663-19.45-16.658-15.286-17.729-12.156-21.597-10.163-22.529-9.683-23.39-9.451-24.428-9.378L-26.388-9.24-24.96-7.89C-23.69-6.69-22.064-4.784-21.329-3.218-22.797-3.485-24.071-3.369-25.5-3.039-25.642-3.006-25.785-2.972-25.927-2.935-27.042-5.041-28.548-6.842-30.576-8.119-31.865-8.931-33.161-9.381-34.599-9.84-34.578-10.296-34.569-10.754-34.569-11.21-33.209-11.214-31.844-11.278-30.498-11.469-23.266-12.493-22.425-19.401-24.11-25.282-25.195-29.073-27.86-33.103-31.588-34.693-34.211-35.813-38.406-35.732-40-33.021-39.701-36.479-37.528-37.479-36.359-38.145-30.696-41.085-24.263-42.746-17.441-42.746-6.086-42.746 4.195-38.144 11.636-30.702 19.077-23.261 23.68-12.981 23.68-1.625 23.68 9.73 19.077 20.011 11.636 27.452 4.195 34.893-6.086 39.496-17.441 39.496-28.797 39.496-39.078 34.893-46.519 27.452-53.96 20.011-58.563 9.73-58.563-1.625-58.563-12.981-53.96-23.261-46.519-30.702-44.867-32.354-43.076-33.865-41.165-35.217L-41.205-35.135C-42.112-33.306-41.019-28.725-38.696-28.17-38.821-29.112-38.73-30.198-37.387-30.409-35.367-30.726-34.055-28.451-34.84-26.709-34.97-26.42-35.158-26.163-35.399-25.955-36.476-25.025-38.243-25.093-39.496-25.589-41.736-26.477-42.948-29.018-42.669-31.344-45.393-29.03-47.835-26.375-49.796-23.375-52.271-19.589-54.073-16.366-54-11.655-53.877-3.688-47.064-1.89-43.706 3.59-42.157 6.116-41.939 10.625-39.984 12.336-38.028 14.047-33.538 13.614-31.89 16.302-30.823 18.042-30.843 20.066-30.199 21.788-28.017 27.62-23.26 24.329-20.049 23.744-19.687 23.678-19.362 23.688-19.101 23.84-21.02 24.721-22.765 25.762-24.43 26.246-27.691 27.194-29.745 25.587-30.958 22.668-33.659 16.17-36.257 15.724-38.772 15.613-45.523 15.314-45.049 12.437-46.961 7.421-48.221 4.115-52.824 3.671-56.291 1.638-55.983 5.347-55.155 8.909-53.882 12.25-53.534 12.235-53.157 12.203-52.75 12.157-49.11 11.94-47.561 17.917-43.868 19.057-39.061 20.541-35.668 17.648-32.522 25.301-29.833 31.842-24.441 28.421-19.642 26.037-21.072 28.493-23.351 30.516-25.455 31.417-29.524 33.163-32.054 30.771-34.448 28.162-37.395 24.95-39.573 23.389-42.335 23.277-43.635 23.225-45.064 23.494-46.764 24.061-45.503 25.5-44.138 26.845-42.68 28.084-42.019 27.995-41.367 28.009-40.745 28.146-39.653 28.388-38.605 29.42-37.309 30.616-34.583 33.131-32.075 34.674-29.726 35.179-27.341 35.69-25.119 35.13-22.998 33.427-21.338 32.094-19.739 30.06-18.173 27.291-17.885 32.173-21.258 31.765-20.02 36.554-19.956 36.798-19.92 37.041-19.908 37.279-19.093 37.331-18.271 37.359-17.441 37.359ZM-17.441 41.622C-5.499 41.622 5.313 36.781 13.139 28.955 20.965 21.129 25.806 10.317 25.806-1.625 25.806-13.567 20.965-24.379 13.139-32.205 5.313-40.031-5.499-44.872-17.441-44.872-29.383-44.872-40.196-40.031-48.021-32.205-55.848-24.379-60.689-13.567-60.689-1.625-60.689 10.317-55.848 21.129-48.021 28.955-40.196 36.781-29.383 41.622-17.441 41.622" fill="#a4232f" fill-rule="evenodd"/>
<path transform="matrix(1,0,0,-1,76.692,58.897)" d="M0 0C-.352 0-.636 .284-.636 .636-.636 .986-.352 1.271 0 1.271 .351 1.271 .635 .986 .635 .636 .635 .284 .351 0 0 0ZM-1.427-.275C-1.427-.73-1.796-1.1-2.251-1.1-2.707-1.1-3.076-.73-3.076-.275-3.076 .18-2.707 .55-2.251 .55-1.796 .55-1.427 .18-1.427-.275ZM2.887-.412C2.592-.412 2.354-.174 2.354 .12 2.354 .414 2.592 .653 2.887 .653 3.181 .653 3.419 .414 3.419 .12 3.419-.174 3.181-.412 2.887-.412ZM4.06-.975C4.06-.482 4.46-.082 4.953-.082 5.447-.082 5.847-.482 5.847-.975 5.847-1.469 5.447-1.869 4.953-1.869 4.46-1.869 4.06-1.469 4.06-.975ZM-10.002 .275C-9.707 .275-9.469 .036-9.469-.258-9.469-.552-9.707-.79-10.002-.79-10.296-.79-10.534-.552-10.534-.258-10.534 .036-10.296 .275-10.002 .275ZM-5.629 .026C-5.629-.484-6.043-.899-6.554-.899-7.065-.899-7.479-.484-7.479 .026-7.479 .538-7.065 .952-6.554 .952-6.043 .952-5.629 .538-5.629 .026ZM-4.537-1.513C-4.831-1.513-5.069-1.274-5.069-.98-5.069-.686-4.831-.447-4.537-.447-4.243-.447-4.004-.686-4.004-.98-4.004-1.274-4.243-1.513-4.537-1.513ZM-1.484 1.913C-1.707 1.706-2.03 1.632-2.326 1.73-2.784 1.882-2.907 2.026-3.446 2.026-3.67 2.026-3.883 1.995-4.08 1.934-4.266 1.877-4.441 1.797-4.602 1.695-4.855 1.491-5.21 1.449-5.509 1.599-5.947 1.819-6.076 1.954-6.597 1.954-6.841 1.954-7.077 1.905-7.293 1.814-7.498 1.728-7.686 1.605-7.844 1.454-8.056 1.208-8.397 1.101-8.718 1.195-9.074 1.298-9.234 1.389-9.628 1.389-10.146 1.389-10.621 1.209-10.992 .909-11.355 .614-11.62 .207-11.729-.258-11.768-.539-11.946-.794-12.221-.917-12.643-1.102-12.957-1.334-13.215-1.721-13.444-2.063-13.577-2.476-13.577-2.919-13.577-3.274-13.491-3.611-13.338-3.908-13.229-4.119-13.086-4.312-12.914-4.476-12.789-4.859-12.814-5.227-12.876-5.514-12.99-6.044-13.376-6.465-13.376-6.988-13.376-7.807-12.712-8.47-11.894-8.47-10.637-8.47-10.309-7.236-10.262-6.234-10.222-5.383-10.436-5.018-10.833-4.339-10.153-4.431-9.652-4.658-9.263-4.913-8.388-5.484-7.771-6.419-7.625-7.502-8.352-7.719-8.95-8.466-8.95-9.234-8.95-9.738-8.738-10.189-8.408-10.52-6.451-12.477-6.855-13.189-6.855-13.995V-15.013C-6.855-16.517-7.766-16.082-7.766-17.385-7.766-17.76-7.614-18.101-7.368-18.347-7.122-18.593-6.781-18.745-6.406-18.745-5.821-18.745-5.463-18.405-5.316-18.034-5.11-17.518-5.261-16.867-5.331-16.322-5.403-15.765-5.497-15.225-5.497-14.869-5.497-13.515-5.087-13.202-4.832-12.693-4.701-12.432-4.601-12.155-4.61-11.89-4.619-11.631-4.733-11.384-4.966-11.174-5.12-11.035-5.255-10.892-5.26-10.642-5.266-10.39-4.981-10.191-4.713-9.875-4.607-9.751-4.514-9.613-4.438-9.465-4.287-9.171-4.202-8.837-4.202-8.483-4.202-7.671-4.651-6.964-5.315-6.597-4.864-5.435-4.048-4.455-3.007-3.798-1.966-4.455-1.149-5.435-.699-6.597-1.883-7.252-2.18-8.847-1.309-9.875-1.12-10.098-.926-10.261-.827-10.426-.714-10.617-.744-10.867-.874-11.04-1.135-11.388-1.518-11.615-1.763-11.979-1.898-12.18-1.99-12.424-1.985-12.771-1.98-13.179-1.792-13.182-1.426-13.488-.016-14.667-.348-15.365-.715-17.027-.816-17.482-.863-17.974-.568-18.281-.316-18.543 .016-18.745 .392-18.745 .767-18.745 1.108-18.593 1.354-18.347 1.6-18.101 1.753-17.76 1.753-17.385 1.753-16.082 .842-16.517 .842-15.013V-13.503L.84-13.092C.84-11.293 1.344-12.186 2.219-11.312 2.511-11.019 2.7-10.618 2.7-10.17 2.7-9.472 2.003-8.878 1.472-8.663 1.505-7.919 1.622-7.052 1.954-6.375 2.43-5.406 3.321-4.677 4.394-4.418 5.46-4.16 7.971-3.953 7.434-2.194 7.355-1.971 7.238-1.761 7.088-1.574 6.96-1.427 6.882-1.234 6.882-1.025 6.882-.489 6.76-.051 6.358 .352 5.922 .787 5.507 .865 4.956 .875 4.731 .88 4.51 .974 4.35 1.149 4.141 1.378 4.078 1.528 3.746 1.7 3.313 1.924 2.789 1.924 2.358 1.701 2.057 1.514 1.662 1.534 1.379 1.767 .9 2.165 .508 2.385-.136 2.385-.632 2.385-1.098 2.224-1.484 1.913" fill="#ffffff" fill-rule="evenodd"/>
</svg>
